# xmcd
#
# Track frame offsets: 
#        150
#        14031
#        28375
#        41224
#        53824
#        66691
#        82530
#        102936
#        116068
#        130576
#        145030
#        158763
#        173643
#        187487
#        202371
#        216650
#
# Disc length: 3093 seconds
#
# Revision: 2
# Processed by: cddbd v1.4PL0 Copyright (c) Steve Scherf et al.
# Submitted via: ExactAudioCopy v0.90b4
#
DISCID=fb0c1310
DTITLE=Aaron Tippin - The Essential Aaron Tippin
DYEAR=1998
DGENRE=Country
TTITLE0=You've Got to Stand for Something
TTITLE1=The Man that Came Between Us (Was Me)
TTITLE2=Many, Many, Many Beers Ago
TTITLE3=There Ain't Nothin' Wrong with the Radio
TTITLE4=I was Born with a Broken Heart
TTITLE5=Working Man's PhD
TTITLE6=The Call of the Wild
TTITLE7=She Feels Like a Brand New Man Tonight
TTITLE8=Mission from Hank
TTITLE9=You are the Woman
TTITLE10=Cold Chill
TTITLE11=All I Have to Offer You is Me
TTITLE12=Country Boy's Tool Box
TTITLE13=That's as Close as I'll Get to Loving You
TTITLE14=How's the Radio Know
TTITLE15=I Can Help
EXTD=
EXTT0=
EXTT1=
EXTT2=
EXTT3=
EXTT4=
EXTT5=
EXTT6=
EXTT7=
EXTT8=
EXTT9=
EXTT10=
EXTT11=
EXTT12=
EXTT13=
EXTT14=
EXTT15=
PLAYORDER=
